Coordinates
version=1
nRows=7
nColumns=40
inDegrees=yes

Units are S.I. units (second, meters, Newtons, ...)
Angles are in degrees.

endheader
time	pelvis_tilt	pelvis_list	pelvis_rotation	pelvis_tx	pelvis_ty	pelvis_tz	hip_flexion_r	hip_adduction_r	hip_rotation_r	knee_angle_r	knee_angle_r_beta	ankle_angle_r	subtalar_angle_r	mtp_angle_r	hip_flexion_l	hip_adduction_l	hip_rotation_l	knee_angle_l	knee_angle_l_beta	ankle_angle_l	subtalar_angle_l	mtp_angle_l	lumbar_extension	lumbar_bending	lumbar_rotation	arm_flex_r	arm_add_r	arm_rot_r	elbow_flex_r	pro_sup_r	wrist_flex_r	wrist_dev_r	arm_flex_l	arm_add_l	arm_rot_l	elbow_flex_l	pro_sup_l	wrist_flex_l	wrist_dev_l
     28.76000000	     -5.44253682	     -4.62849298	      0.29245495	      1.02944763	      0.93180704	      0.39411738	     34.84660417	     -4.57574561	     -5.13029754	     69.24715366	     69.24715366	      1.98871578	    -18.84037106	      9.35299006	     17.42257637	     -4.00176730	     -5.38329366	     21.82631355	     21.82631355	     11.86696234	    -12.59058003	      2.27172936	    -11.45204774	      5.55029322	      2.00441131	     14.67982882	    -11.63744466	     -0.82392567	     41.50608558	     45.46949063	      0.00000000	      0.00000000	      8.96657120	    -13.46469097	     -4.76883596	     52.86674175	     45.71554239	      0.00000000	      0.00000000
     28.77221429	     -5.37010167	     -4.67873900	     -0.00703450	      1.02858432	      0.93279737	      0.39398237	     35.84334717	     -4.39573017	     -5.11695985	     67.62530380	     67.62530380	      1.97554943	    -18.65931317	      9.04399871	     16.46361207	     -4.08520896	     -5.73729170	     21.19294401	     21.19294401	     12.09868194	    -12.30917590	      2.21143180	    -11.69686002	      5.71761635	      2.55408532	     12.56746868	    -12.24467550	     -0.80062113	     39.50258083	     45.53658363	      0.00000000	      0.00000000	     10.01432380	    -13.60730107	     -5.12125444	     54.46388292	     45.79038693	      0.00000000	      0.00000000
     28.78442857	     -5.34269825	     -4.78161839	     -0.27811984	      1.02771142	      0.93371137	      0.39385662	     36.71461249	     -4.17456063	     -5.20743747	     65.73250922	     65.73250922	      1.87039147	    -18.43919037	      8.66038755	     15.53194653	     -4.20760418	     -6.04892782	     20.49435589	     20.49435589	     12.30737317	    -11.99929846	      2.15876362	    -11.88250898	      5.95509887	      2.98258622	     10.62300569	    -12.73153254	     -0.79408645	     37.39015455	     45.60995368	      0.00000000	      0.00000000	     10.90084965	    -13.72814065	     -5.46275838	     56.16983731	     45.86013039	      0.00000000	      0.00000000
     28.79664286	     -5.26502585	     -4.78595598	     -0.55304625	      1.02684193	      0.93440710	      0.39375382	     37.33789508	     -4.08641968	     -5.31435715	     63.51353426	     63.51353426	      0.89966891	    -18.34052406	      5.50393982	     14.62413654	     -4.23334883	     -6.41883495	     19.92154396	     19.92154396	     12.37109166	    -11.78360576	      1.54645294	    -12.12274630	      6.02631674	      2.16572446	     10.95059886	    -12.20177914	     -1.44031040	     31.16736516	     45.92604474	      0.00000000	      0.00000000	     10.20819003	    -14.59245705	     -6.68978345	     60.27379684	     46.10964427	      0.00000000	      0.00000000
     28.80885714	     -5.20256986	     -4.84005429	     -0.81602354	      1.02592817	      0.93503602	      0.39378039	     37.91738034	     -3.84875622	     -5.37251435	     61.19764791	     61.19764791	      0.83550975	    -17.98077226	      5.33162581	     13.75271733	     -4.29513632	     -6.71170801	     19.37318150	     19.37318150	     12.62147707	    -11.56834088	      1.52188523	    -12.37818148	      6.17471778	      2.78684654	      8.96437794	    -12.73140006	     -1.50357369	     29.39534274	     45.99409310	      0.00000000	      0.00000000	     11.31794157	    -14.58098894	     -7.28579234	     61.98460797	     46.20800941	      0.00000000	      0.00000000
     28.82107143	     -5.30883228	     -4.96450924	     -0.95305697	      1.02484592	      0.93530522	      0.39377306	     38.50652452	     -3.63007270	     -5.62969338	     58.60084783	     58.60084783	      0.81913000	    -17.42683438	      5.24531272	     13.16563594	     -4.42080947	     -6.85781867	     18.92946770	     18.92946770	     12.84828071	    -11.34683173	      1.46997976	    -12.40010206	      6.46178888	      2.76374848	      7.23698061	    -13.02132782	     -1.55742830	     28.14422830	     46.04002700	      0.00000000	      0.00000000	     12.06214636	    -14.93309966	     -7.69306462	     63.23427029	     46.27131392	      0.00000000	      0.00000000
     28.83328571	     -5.32979200	     -5.01276211	     -1.12516804	      1.02378869	      0.93546257	      0.39391830	     38.74684620	     -3.45437627	     -5.85568321	     55.51962970	     55.51962970	     -0.13874741	    -17.13917272	      1.99327625	     12.51190761	     -4.50084266	     -7.16400464	     18.54699757	     18.54699757	     13.05155944	    -11.02218536	      1.11051354	    -12.58428532	      6.57866849	      2.26608595	      6.89992378	    -12.82904697	     -2.64042530	     24.23789221	     46.34720692	      0.00000000	      0.00000000	     11.65927389	    -15.25409501	     -9.45960387	     67.14386985	     46.58691443	      0.00000000	      0.00000000
